<svg width="16" height="16" viewBox="0 0 24 24" fill="none" xmlns="http://www.w3.org/2000/svg">
<path fill-rule="evenodd" clip-rule="evenodd" d="M1.68707 1.68706C2.38419e-07 3.37413 0 6.08942 0 11.52V12.48C0 17.9106 2.38419e-07 20.6259 1.68707 22.3129C3.37413 24 6.08942 24 11.52 24H12.48C17.9106 24 20.6259 24 22.3129 22.3129C24 20.6259 24 17.9106 24 12.48V11.52C24 6.08942 24 3.37413 22.3129 1.68706C20.6259 0 17.9106 0 12.48 0H11.52C6.08942 0 3.37413 0 1.68707 1.68706Z" fill="#2D2D2E"/>
<path d="M11.098 16.5H4.975V7.335H10.968V8.765H6.535V11.196H10.552V12.561H6.535V15.07H11.098V16.5Z" fill="white"/>
<path d="M15.7336 16.63C14.8843 16.63 14.1346 16.4047 13.4846 15.954C12.8433 15.4947 12.4143 14.8793 12.1976 14.108L13.7056 13.848C13.9569 14.3073 14.2386 14.6497 14.5506 14.875C14.8626 15.0917 15.2613 15.2 15.7466 15.2C16.1973 15.2 16.5656 15.1003 16.8516 14.901C17.1463 14.693 17.2936 14.4113 17.2936 14.056C17.2936 13.796 17.2113 13.5793 17.0466 13.406C16.882 13.224 16.674 13.0767 16.4226 12.964C16.1713 12.8513 15.8376 12.7257 15.4216 12.587C14.841 12.3963 14.3643 12.21 13.9916 12.028C13.619 11.8373 13.2983 11.5643 13.0296 11.209C12.7696 10.845 12.6396 10.377 12.6396 9.805C12.6396 9.27633 12.7696 8.817 13.0296 8.427C13.2983 8.02833 13.6579 7.725 14.1086 7.517C14.5593 7.309 15.0663 7.205 15.6296 7.205C16.4269 7.205 17.1116 7.413 17.6836 7.829C18.2556 8.245 18.6586 8.817 18.8926 9.545L17.4106 9.792C17.246 9.41933 17.0163 9.13333 16.7216 8.934C16.427 8.73467 16.0803 8.635 15.6816 8.635C15.2743 8.635 14.932 8.73033 14.6546 8.921C14.3773 9.11167 14.2386 9.38033 14.2386 9.727C14.2386 9.987 14.3166 10.2037 14.4726 10.377C14.6373 10.5503 14.8453 10.6933 15.0966 10.806C15.3479 10.9187 15.6859 11.0487 16.1106 11.196C16.6913 11.3953 17.168 11.5903 17.5406 11.781C17.9133 11.9717 18.2296 12.249 18.4896 12.613C18.7583 12.977 18.8926 13.4407 18.8926 14.004C18.8926 14.5327 18.7496 14.9963 18.4636 15.395C18.1863 15.7937 17.8049 16.1013 17.3196 16.318C16.8429 16.526 16.3143 16.63 15.7336 16.63Z" fill="white"/>
</svg>
