<?xml version="1.0" encoding="UTF-8"?>
<svg xmlns="http://www.w3.org/2000/svg" xmlns:xlink="http://www.w3.org/1999/xlink" width="16px" height="16px" viewBox="0 0 16 16"
     version="1.1">
  <defs>
    <linearGradient id="linear0" gradientUnits="userSpaceOnUse" x1="175.5" y1="109.5" x2="175.5" y2="361.35"
                    gradientTransform="matrix(0.045584,0,0,0.0438356,0,0)">
      <stop offset="0" style="stop-color:rgb(94.117647%,35.294118%,15.686275%);stop-opacity:1;"/>
      <stop offset="1" style="stop-color:rgb(98.431373%,79.215686%,3.921569%);stop-opacity:1;"/>
    </linearGradient>
  </defs>
  <g id="surface1">
    <path style=" stroke:none;fill-rule:nonzero;fill:url(#linear0);"
          d="M 15.589844 7.066406 C 15.5625 6.800781 15.515625 6.492188 15.425781 6.148438 C 15.335938 5.8125 15.199219 5.441406 14.996094 5.054688 C 14.796875 4.667969 14.535156 4.269531 14.199219 3.878906 C 14.066406 3.726562 13.921875 3.578125 13.765625 3.433594 C 14 2.542969 13.484375 1.769531 13.484375 1.769531 C 12.59375 1.71875 12.03125 2.039062 11.820312 2.183594 C 11.785156 2.167969 11.75 2.152344 11.714844 2.140625 C 11.566406 2.082031 11.410156 2.023438 11.246094 1.976562 C 11.085938 1.929688 10.921875 1.886719 10.753906 1.84375 C 10.585938 1.804688 10.414062 1.773438 10.242188 1.75 C 10.210938 1.746094 10.183594 1.742188 10.152344 1.734375 C 9.765625 0.542969 8.652344 0.0429688 8.652344 0.0429688 C 7.40625 0.800781 7.175781 1.863281 7.175781 1.863281 C 7.175781 1.863281 7.171875 1.886719 7.160156 1.925781 C 7.09375 1.941406 7.023438 1.964844 6.957031 1.980469 C 6.859375 2.007812 6.765625 2.042969 6.671875 2.078125 C 6.578125 2.113281 6.488281 2.148438 6.390625 2.1875 C 6.203125 2.265625 6.015625 2.355469 5.835938 2.449219 C 5.65625 2.546875 5.484375 2.652344 5.316406 2.761719 C 5.292969 2.753906 5.269531 2.742188 5.269531 2.742188 C 3.546875 2.113281 2.019531 2.871094 2.019531 2.871094 C 1.878906 4.632812 2.707031 5.742188 2.871094 5.945312 C 2.832031 6.054688 2.792969 6.164062 2.757812 6.273438 C 2.628906 6.671875 2.535156 7.078125 2.476562 7.503906 C 2.464844 7.566406 2.457031 7.628906 2.453125 7.6875 C 0.855469 8.445312 0.386719 9.996094 0.386719 9.996094 C 1.714844 11.464844 3.265625 11.554688 3.265625 11.554688 C 3.265625 11.554688 3.269531 11.550781 3.269531 11.550781 C 3.464844 11.886719 3.691406 12.207031 3.949219 12.511719 C 4.058594 12.636719 4.167969 12.757812 4.285156 12.875 C 3.800781 14.207031 4.351562 15.3125 4.351562 15.3125 C 5.832031 15.363281 6.800781 14.6875 7.007812 14.535156 C 7.152344 14.585938 7.300781 14.628906 7.453125 14.664062 C 7.910156 14.777344 8.375 14.84375 8.839844 14.859375 C 8.953125 14.863281 9.070312 14.867188 9.183594 14.863281 L 9.347656 14.863281 L 9.421875 14.859375 L 9.421875 14.863281 C 10.121094 15.820312 11.339844 15.957031 11.339844 15.957031 C 12.210938 15.074219 12.261719 14.199219 12.261719 14.011719 C 12.261719 14.011719 12.261719 14.003906 12.261719 13.996094 C 12.261719 13.980469 12.261719 13.96875 12.261719 13.96875 C 12.261719 13.957031 12.261719 13.945312 12.261719 13.929688 C 12.445312 13.808594 12.617188 13.675781 12.78125 13.53125 C 13.128906 13.230469 13.433594 12.882812 13.6875 12.511719 C 13.710938 12.476562 13.734375 12.441406 13.757812 12.40625 C 14.742188 12.457031 15.4375 11.816406 15.4375 11.816406 C 15.273438 10.832031 14.691406 10.347656 14.570312 10.257812 C 14.570312 10.257812 14.5625 10.253906 14.554688 10.25 C 14.546875 10.246094 14.546875 10.238281 14.546875 10.238281 C 14.542969 10.234375 14.53125 10.230469 14.523438 10.226562 C 14.527344 10.164062 14.53125 10.109375 14.535156 10.046875 C 14.546875 9.941406 14.546875 9.832031 14.546875 9.726562 L 14.546875 9.585938 C 14.546875 9.5625 14.546875 9.570312 14.546875 9.5625 L 14.542969 9.496094 L 14.535156 9.40625 C 14.535156 9.375 14.53125 9.351562 14.527344 9.324219 C 14.523438 9.296875 14.523438 9.265625 14.519531 9.242188 L 14.507812 9.15625 L 14.496094 9.074219 C 14.476562 8.964844 14.460938 8.859375 14.433594 8.75 C 14.328125 8.324219 14.152344 7.921875 13.929688 7.558594 C 13.703125 7.195312 13.421875 6.875 13.097656 6.601562 C 12.777344 6.328125 12.417969 6.109375 12.042969 5.949219 C 11.664062 5.785156 11.273438 5.679688 10.882812 5.632812 C 10.683594 5.605469 10.488281 5.597656 10.292969 5.601562 L 10.203125 5.601562 C 10.195312 5.601562 10.175781 5.601562 10.179688 5.601562 L 10.148438 5.601562 L 10.074219 5.605469 C 10.046875 5.605469 10.019531 5.609375 9.996094 5.609375 C 9.894531 5.621094 9.796875 5.632812 9.699219 5.652344 C 9.308594 5.71875 8.9375 5.855469 8.617188 6.046875 C 8.292969 6.234375 8.007812 6.464844 7.78125 6.730469 C 7.554688 6.992188 7.375 7.285156 7.253906 7.589844 C 7.128906 7.890625 7.0625 8.207031 7.042969 8.507812 C 7.039062 8.582031 7.039062 8.660156 7.039062 8.738281 C 7.039062 8.753906 7.039062 8.777344 7.039062 8.792969 L 7.042969 8.855469 C 7.046875 8.890625 7.046875 8.929688 7.050781 8.964844 C 7.066406 9.117188 7.097656 9.265625 7.136719 9.40625 C 7.226562 9.691406 7.363281 9.949219 7.53125 10.167969 C 7.699219 10.390625 7.902344 10.570312 8.117188 10.714844 C 8.332031 10.855469 8.566406 10.953125 8.792969 11.019531 C 9.019531 11.085938 9.25 11.113281 9.464844 11.113281 C 9.492188 11.113281 9.519531 11.113281 9.539062 11.113281 C 9.554688 11.113281 9.566406 11.113281 9.582031 11.113281 C 9.59375 11.113281 9.609375 11.113281 9.621094 11.109375 C 9.644531 11.109375 9.667969 11.105469 9.691406 11.105469 C 9.695312 11.105469 9.703125 11.105469 9.710938 11.097656 L 9.730469 11.09375 C 9.746094 11.09375 9.757812 11.089844 9.773438 11.089844 C 9.800781 11.085938 9.824219 11.082031 9.851562 11.078125 C 9.878906 11.074219 9.902344 11.070312 9.921875 11.058594 C 9.972656 11.050781 10.019531 11.035156 10.066406 11.019531 C 10.15625 10.988281 10.246094 10.953125 10.324219 10.914062 C 10.40625 10.875 10.480469 10.828125 10.550781 10.785156 C 10.570312 10.769531 10.59375 10.757812 10.613281 10.738281 C 10.683594 10.683594 10.699219 10.578125 10.640625 10.507812 C 10.589844 10.445312 10.496094 10.429688 10.425781 10.46875 C 10.40625 10.476562 10.386719 10.484375 10.371094 10.496094 C 10.304688 10.523438 10.242188 10.550781 10.175781 10.574219 C 10.105469 10.59375 10.03125 10.613281 9.960938 10.625 C 9.921875 10.628906 9.886719 10.632812 9.847656 10.640625 C 9.828125 10.640625 9.808594 10.644531 9.785156 10.644531 C 9.769531 10.644531 9.746094 10.644531 9.730469 10.644531 C 9.714844 10.644531 9.695312 10.644531 9.675781 10.644531 C 9.65625 10.644531 9.632812 10.644531 9.609375 10.640625 C 9.609375 10.640625 9.59375 10.640625 9.605469 10.640625 L 9.582031 10.640625 C 9.574219 10.640625 9.558594 10.640625 9.550781 10.632812 C 9.527344 10.628906 9.507812 10.628906 9.484375 10.625 C 9.316406 10.605469 9.148438 10.554688 8.988281 10.484375 C 8.824219 10.414062 8.671875 10.320312 8.527344 10.195312 C 8.386719 10.074219 8.265625 9.929688 8.167969 9.761719 C 8.074219 9.59375 8.003906 9.410156 7.972656 9.21875 C 7.957031 9.121094 7.949219 9.019531 7.953125 8.925781 C 7.953125 8.898438 7.957031 8.871094 7.957031 8.847656 C 7.957031 8.855469 7.957031 8.839844 7.957031 8.839844 L 7.957031 8.8125 C 7.957031 8.796875 7.964844 8.785156 7.964844 8.773438 C 7.96875 8.71875 7.976562 8.667969 7.984375 8.613281 C 8.0625 8.191406 8.28125 7.78125 8.621094 7.46875 C 8.707031 7.390625 8.796875 7.320312 8.894531 7.253906 C 8.988281 7.1875 9.09375 7.132812 9.203125 7.082031 C 9.3125 7.035156 9.421875 6.996094 9.539062 6.964844 C 9.65625 6.933594 9.773438 6.917969 9.894531 6.902344 C 9.957031 6.898438 10.015625 6.894531 10.078125 6.894531 C 10.097656 6.894531 10.105469 6.894531 10.121094 6.894531 L 10.203125 6.894531 C 10.214844 6.894531 10.203125 6.894531 10.207031 6.894531 L 10.21875 6.894531 L 10.269531 6.898438 C 10.402344 6.910156 10.53125 6.925781 10.65625 6.957031 C 10.914062 7.007812 11.164062 7.101562 11.394531 7.222656 C 11.859375 7.472656 12.257812 7.859375 12.5 8.324219 C 12.621094 8.558594 12.707031 8.804688 12.75 9.066406 C 12.757812 9.132812 12.769531 9.195312 12.773438 9.261719 L 12.777344 9.3125 L 12.78125 9.359375 C 12.78125 9.375 12.78125 9.394531 12.78125 9.40625 C 12.78125 9.425781 12.78125 9.441406 12.78125 9.457031 L 12.78125 9.546875 C 12.78125 9.578125 12.777344 9.628906 12.777344 9.660156 C 12.773438 9.730469 12.761719 9.804688 12.753906 9.875 C 12.746094 9.945312 12.730469 10.015625 12.71875 10.085938 C 12.703125 10.15625 12.6875 10.226562 12.667969 10.292969 C 12.632812 10.429688 12.585938 10.5625 12.53125 10.699219 C 12.421875 10.964844 12.277344 11.21875 12.101562 11.449219 C 11.75 11.914062 11.273438 12.292969 10.726562 12.53125 C 10.453125 12.652344 10.164062 12.738281 9.867188 12.78125 C 9.722656 12.808594 9.574219 12.820312 9.421875 12.828125 L 9.210938 12.828125 C 9.230469 12.828125 9.207031 12.828125 9.207031 12.828125 L 9.195312 12.828125 C 9.113281 12.828125 9.035156 12.820312 8.953125 12.8125 C 8.632812 12.792969 8.320312 12.734375 8.007812 12.652344 C 7.703125 12.566406 7.40625 12.449219 7.125 12.308594 C 6.5625 12.019531 6.058594 11.625 5.667969 11.148438 C 5.46875 10.910156 5.296875 10.652344 5.15625 10.382812 C 5.015625 10.117188 4.898438 9.832031 4.816406 9.546875 C 4.734375 9.257812 4.6875 8.964844 4.664062 8.667969 L 4.660156 8.609375 L 4.660156 8.359375 C 4.660156 8.359375 4.660156 8.363281 4.660156 8.355469 L 4.660156 8.328125 C 4.660156 8.292969 4.660156 8.253906 4.660156 8.21875 C 4.664062 8.074219 4.675781 7.921875 4.695312 7.773438 C 4.714844 7.621094 4.742188 7.46875 4.773438 7.320312 C 4.804688 7.171875 4.839844 7.023438 4.886719 6.875 C 4.972656 6.578125 5.082031 6.292969 5.210938 6.027344 C 5.46875 5.492188 5.808594 5.015625 6.214844 4.632812 C 6.3125 4.535156 6.417969 4.449219 6.527344 4.363281 C 6.636719 4.277344 6.75 4.199219 6.871094 4.125 C 6.984375 4.050781 7.105469 3.984375 7.230469 3.921875 C 7.289062 3.894531 7.351562 3.863281 7.417969 3.835938 C 7.449219 3.824219 7.480469 3.808594 7.511719 3.796875 C 7.542969 3.78125 7.574219 3.769531 7.609375 3.757812 C 7.734375 3.703125 7.867188 3.660156 8.003906 3.621094 C 8.035156 3.613281 8.074219 3.601562 8.105469 3.589844 C 8.136719 3.582031 8.171875 3.574219 8.207031 3.5625 C 8.273438 3.546875 8.34375 3.527344 8.410156 3.515625 C 8.441406 3.507812 8.480469 3.503906 8.515625 3.492188 C 8.550781 3.484375 8.582031 3.480469 8.621094 3.472656 C 8.65625 3.46875 8.6875 3.457031 8.726562 3.453125 L 8.773438 3.445312 L 8.828125 3.4375 C 8.867188 3.433594 8.898438 3.429688 8.933594 3.421875 C 8.976562 3.417969 9.011719 3.414062 9.054688 3.410156 C 9.085938 3.40625 9.140625 3.402344 9.171875 3.398438 C 9.195312 3.394531 9.222656 3.394531 9.246094 3.386719 L 9.292969 3.382812 L 9.316406 3.378906 L 9.34375 3.378906 C 9.386719 3.375 9.421875 3.375 9.464844 3.371094 L 9.523438 3.367188 C 9.523438 3.367188 9.546875 3.367188 9.527344 3.367188 L 9.566406 3.367188 C 9.601562 3.367188 9.636719 3.363281 9.667969 3.363281 C 9.800781 3.359375 9.9375 3.359375 10.070312 3.363281 C 10.332031 3.371094 10.59375 3.402344 10.84375 3.445312 C 11.351562 3.539062 11.824219 3.691406 12.257812 3.898438 C 12.691406 4.097656 13.074219 4.347656 13.410156 4.621094 C 13.433594 4.636719 13.453125 4.65625 13.476562 4.671875 C 13.492188 4.691406 13.515625 4.707031 13.535156 4.726562 C 13.574219 4.761719 13.613281 4.796875 13.652344 4.832031 C 13.695312 4.867188 13.730469 4.902344 13.765625 4.9375 C 13.804688 4.972656 13.839844 5.007812 13.875 5.046875 C 14.015625 5.191406 14.148438 5.335938 14.269531 5.484375 C 14.503906 5.777344 14.695312 6.074219 14.847656 6.355469 C 14.855469 6.375 14.863281 6.390625 14.875 6.410156 C 14.882812 6.425781 14.890625 6.445312 14.902344 6.460938 C 14.917969 6.496094 14.9375 6.53125 14.953125 6.566406 C 14.96875 6.601562 14.984375 6.632812 15 6.667969 C 15.015625 6.703125 15.035156 6.734375 15.046875 6.769531 C 15.101562 6.898438 15.15625 7.027344 15.199219 7.144531 C 15.265625 7.339844 15.316406 7.507812 15.355469 7.65625 C 15.371094 7.71875 15.429688 7.757812 15.492188 7.75 C 15.5625 7.746094 15.613281 7.691406 15.613281 7.628906 C 15.617188 7.46875 15.613281 7.28125 15.589844 7.066406 Z M 15.589844 7.066406 "/>
  </g>
</svg>
