<svg width="16" height="16" viewBox="0 0 16 16" fill="none" xmlns="http://www.w3.org/2000/svg">
    <path d="M12.1699 15.1367C11.8509 15.1367 11.5706 15.0911 11.3291 15C11.0876 14.9043 10.8802 14.7744 10.707 14.6104C10.5384 14.4417 10.3971 14.2458 10.2832 14.0225H10.2285L9.83203 15H8.25293L10.5088 4.36328H12.5664L12.1426 6.33203C12.1016 6.51888 12.0492 6.73763 11.9854 6.98828C11.9215 7.23438 11.8532 7.48275 11.7803 7.7334C11.7074 7.97949 11.6367 8.19368 11.5684 8.37598H11.623C11.7871 8.1709 11.958 7.97949 12.1357 7.80176C12.3135 7.62402 12.5163 7.48275 12.7441 7.37793C12.9766 7.26855 13.2477 7.21387 13.5576 7.21387C13.9268 7.21387 14.2754 7.30501 14.6035 7.4873C14.9316 7.6696 15.1982 7.96354 15.4033 8.36914C15.6084 8.77474 15.7109 9.31478 15.7109 9.98926C15.7109 10.486 15.6562 10.9827 15.5469 11.4795C15.4421 11.9717 15.2871 12.4365 15.082 12.874C14.8815 13.3115 14.6354 13.7012 14.3438 14.043C14.0566 14.3848 13.7308 14.6536 13.3662 14.8496C13.0016 15.041 12.6029 15.1367 12.1699 15.1367ZM11.8213 13.4756C12.0218 13.4756 12.2132 13.4118 12.3955 13.2842C12.5778 13.152 12.7441 12.9743 12.8945 12.751C13.0449 12.5231 13.1748 12.2656 13.2842 11.9785C13.3936 11.6868 13.4779 11.3792 13.5371 11.0557C13.5964 10.7321 13.626 10.4085 13.626 10.085C13.626 9.68392 13.5508 9.38314 13.4004 9.18262C13.2546 8.9821 13.0312 8.88184 12.7305 8.88184C12.5117 8.88184 12.3112 8.9388 12.1289 9.05273C11.9512 9.16667 11.7939 9.32161 11.6572 9.51758C11.5205 9.70898 11.402 9.92546 11.3018 10.167C11.2015 10.4085 11.1195 10.6569 11.0557 10.9121C10.9919 11.1628 10.944 11.4066 10.9121 11.6436C10.8848 11.8805 10.8711 12.0902 10.8711 12.2725C10.8711 12.6325 10.9554 12.9242 11.124 13.1475C11.2972 13.3662 11.5296 13.4756 11.8213 13.4756Z" fill="#6E6E6E"/>
    <path d="M0.25293 15L2.50879 4.36328H4.56641L4.16992 6.20898C4.12891 6.41862 4.07194 6.65788 3.99902 6.92676C3.93066 7.19108 3.85775 7.45312 3.78027 7.71289C3.7028 7.9681 3.63216 8.18913 3.56836 8.37598H3.62305C3.8099 8.14355 4.01042 7.94076 4.22461 7.76758C4.44336 7.58984 4.68034 7.45312 4.93555 7.35742C5.19076 7.26172 5.46875 7.21387 5.76953 7.21387C6.20703 7.21387 6.57161 7.30501 6.86328 7.4873C7.15951 7.66504 7.38053 7.91797 7.52637 8.24609C7.6722 8.57422 7.74512 8.96387 7.74512 9.41504C7.74512 9.58366 7.73145 9.77279 7.7041 9.98242C7.67676 10.1921 7.63802 10.4131 7.58789 10.6455L6.67871 15H4.62109L5.55762 10.5361C5.59408 10.3812 5.62142 10.2354 5.63965 10.0986C5.65788 9.96191 5.66699 9.83659 5.66699 9.72266C5.66699 9.43555 5.60547 9.22363 5.48242 9.08691C5.35938 8.9502 5.1748 8.88184 4.92871 8.88184C4.61882 8.88184 4.33854 9.01628 4.08789 9.28516C3.83724 9.54948 3.61849 9.90495 3.43164 10.3516C3.24935 10.7982 3.09896 11.2926 2.98047 11.835L2.31055 15H0.25293Z" fill="#389FD6"/>
</svg>
