<?xml version="1.0" standalone="no"?>
<!DOCTYPE svg PUBLIC "-//W3C//DTD SVG 20010904//EN"
 "http://www.w3.org/TR/2001/REC-SVG-20010904/DTD/svg10.dtd">
<svg version="1.0" xmlns="http://www.w3.org/2000/svg"
 width="16.000000pt" height="14.000000pt" viewBox="0 0 16.000000 14.000000"
 preserveAspectRatio="xMidYMid meet">

<g transform="translate(0.000000,14.000000) scale(0.100000,-0.100000)"
fill="#000000" stroke="none">
<path d="M26 72 c-9 -37 -2 -55 9 -23 8 27 29 28 22 1 -3 -11 -1 -20 4 -20 5
0 9 11 9 25 0 15 -6 25 -14 25 -8 0 -16 6 -19 13 -2 6 -7 -3 -11 -21z"/>
<path d="M90 81 c0 -11 -2 -26 -6 -34 -4 -10 3 -14 23 -13 21 1 29 7 31 24 2
15 -2 22 -12 22 -9 0 -16 5 -16 10 0 6 -4 10 -10 10 -5 0 -10 -9 -10 -19z m38
-22 c-2 -6 -8 -10 -13 -10 -5 0 -11 4 -13 10 -2 6 4 11 13 11 9 0 15 -5 13
-11z"/>
</g>
</svg>
