<svg width="16" height="16" viewBox="0 0 24 24" fill="none" xmlns="http://www.w3.org/2000/svg">
<path fill-rule="evenodd" clip-rule="evenodd" d="M1.68707 1.68706C2.38419e-07 3.37413 0 6.08942 0 11.52V12.48C0 17.9106 2.38419e-07 20.6259 1.68707 22.3129C3.37413 24 6.08942 24 11.52 24H12.48C17.9106 24 20.6259 24 22.3129 22.3129C24 20.6259 24 17.9106 24 12.48V11.52C24 6.08942 24 3.37413 22.3129 1.68706C20.6259 0 17.9106 0 12.48 0H11.52C6.08942 0 3.37413 0 1.68707 1.68706Z" fill="#2D2D2E"/>
<path d="M8.6 16.5H7.04V7.335H8.6V16.5Z" fill="white"/>
<path d="M17.5346 16.5H15.7016L13.2836 13.133H12.1786V16.5H10.6186V7.335H13.9986C14.6226 7.335 15.1816 7.46067 15.6756 7.712C16.1696 7.95467 16.5552 8.297 16.8326 8.739C17.1099 9.17233 17.2486 9.67067 17.2486 10.234C17.2486 10.9187 17.0406 11.5123 16.6246 12.015C16.2172 12.509 15.6712 12.8427 14.9866 13.016L17.5346 16.5ZM12.1786 8.765V11.703H13.9986C14.4839 11.703 14.8782 11.5687 15.1816 11.3C15.4936 11.0227 15.6496 10.6673 15.6496 10.234C15.6496 9.80067 15.4936 9.44967 15.1816 9.181C14.8782 8.90367 14.4839 8.765 13.9986 8.765H12.1786Z" fill="white"/>
</svg>
