<?xml version="1.0" encoding="UTF-8"?>
<svg xmlns="http://www.w3.org/2000/svg" xmlns:xlink="http://www.w3.org/1999/xlink" width="16px" height="16px" viewBox="0 0 16 16" version="1.1">
<g id="surface1">
<path style=" stroke:none;fill-rule:nonzero;fill:rgb(0%,0%,0%);fill-opacity:1;" d="M 10.453125 0 C 14.933594 0 16 1.066406 16 5.546875 L 16 10.453125 C 16 14.933594 14.933594 16 10.453125 16 L 5.546875 16 C 1.066406 16 0 14.933594 0 10.453125 L 0 5.546875 C 0 1.066406 1.066406 0 5.546875 0 Z M 10.453125 0 "/>
<path style=" stroke:none;fill-rule:nonzero;fill:rgb(100%,100%,100%);fill-opacity:1;" d="M 6 10.832031 C 6.277344 10.832031 6.5 10.609375 6.5 10.332031 C 6.5 10.058594 6.277344 9.832031 6 9.832031 C 5.722656 9.832031 5.5 10.058594 5.5 10.332031 C 5.5 10.609375 5.722656 10.832031 6 10.832031 Z M 6 10.832031 "/>
<path style=" stroke:none;fill-rule:evenodd;fill:rgb(100%,100%,100%);fill-opacity:1;" d="M 10.851562 3.382812 C 10.730469 3.382812 10.613281 3.429688 10.53125 3.515625 L 7.128906 6.949219 C 6.925781 6.90625 6.714844 6.882812 6.5 6.882812 C 4.871094 6.882812 3.550781 8.203125 3.550781 9.832031 C 3.550781 11.460938 4.871094 12.785156 6.5 12.785156 C 8.128906 12.785156 9.449219 11.460938 9.449219 9.832031 C 9.449219 9.617188 9.414062 9.347656 9.367188 9.101562 C 9.34375 8.996094 9.320312 8.886719 9.292969 8.785156 L 10 8.785156 C 10.25 8.785156 10.449219 8.582031 10.449219 8.332031 L 10.449219 7.535156 L 11 7.535156 C 11.25 7.535156 11.449219 7.332031 11.449219 7.082031 L 11.449219 6.285156 L 12 6.285156 C 12.25 6.285156 12.449219 6.082031 12.449219 5.832031 L 12.449219 3.832031 C 12.449219 3.585938 12.25 3.382812 12 3.382812 Z M 7.585938 7.769531 L 11.039062 4.285156 L 11.550781 4.285156 L 11.550781 5.382812 L 11 5.382812 C 10.75 5.382812 10.550781 5.585938 10.550781 5.832031 L 10.550781 6.632812 L 10 6.632812 C 9.75 6.632812 9.550781 6.835938 9.550781 7.082031 L 9.550781 7.882812 L 9 7.882812 C 8.878906 7.882812 8.765625 7.929688 8.683594 8.015625 L 8.433594 8.265625 C 8.300781 8.394531 8.261719 8.59375 8.335938 8.761719 C 8.386719 8.875 8.441406 9.0625 8.484375 9.277344 C 8.527344 9.492188 8.550781 9.695312 8.550781 9.832031 C 8.550781 10.964844 7.632812 11.882812 6.5 11.882812 C 5.367188 11.882812 4.449219 10.964844 4.449219 9.832031 C 4.449219 8.703125 5.367188 7.785156 6.5 7.785156 C 6.71875 7.785156 6.929688 7.816406 7.128906 7.882812 C 7.289062 7.933594 7.46875 7.890625 7.585938 7.769531 Z M 7.585938 7.769531 "/>
</g>
</svg>
