<svg width="16" height="16" viewBox="0 0 16 16" fill="none" xmlns="http://www.w3.org/2000/svg">
<path d="M4.776 9.56488C5.51733 9.56488 8.07822 11.496 8.07689 13.8764C8.07822 16.2578 1.47556 16.2578 1.47511 13.876C1.47556 11.4955 4.03467 9.56488 4.776 9.56488V9.56488Z" fill="#99AAB5"/>
<path d="M3.796 11.192C7.72444 15.1209 11.5013 13.4867 12.6996 12.2893C13.8973 11.0911 12.6293 7.88221 9.868 5.12087C7.10578 2.3591 3.89644 1.0911 2.69866 2.28887C1.50089 3.48665 -0.132891 7.26354 3.796 11.192Z" fill="#CCD6DD"/>
<path d="M5.53023 9.45688C8.292 12.2187 11.5009 13.4862 12.6991 12.2889C13.8969 11.0907 12.6289 7.88177 9.86756 5.12044C7.10578 2.3591 3.89645 1.0911 2.69867 2.28888C1.50089 3.48666 2.76889 6.69599 5.53023 9.45688V9.45688Z" fill="#66757F"/>
<path d="M9.86755 5.12047C10.0644 5.31781 10.0644 5.63736 9.86755 5.8347L6.65289 9.04847C6.45555 9.24581 6.136 9.24581 5.93866 9.04847C5.74133 8.85158 5.74133 8.53158 5.93866 8.33425L9.15289 5.12047C9.35066 4.92314 9.66978 4.92314 9.86755 5.12047V5.12047Z" fill="#CCD6DD"/>
<path d="M10.5818 4.40668C10.976 4.80091 10.976 5.44091 10.5818 5.83513C10.1871 6.2298 9.54756 6.2298 9.15289 5.83513C8.75867 5.44091 8.75867 4.80091 9.15289 4.40668C9.54711 4.01157 10.1871 4.01157 10.5818 4.40668Z" fill="#CCD6DD"/>
<path d="M12.572 5.81247L12.5493 5.81202C12.304 5.80002 12.1156 5.59113 12.1276 5.34624C12.128 5.33913 12.1556 4.38758 11.4253 3.65736C10.6973 2.9298 9.7489 2.95558 9.73601 2.95513C9.49156 2.9698 9.28223 2.77824 9.26978 2.5338C9.25778 2.28847 9.44623 2.07958 9.69156 2.06758C9.74578 2.06224 11.0373 2.01291 12.0533 3.02891C13.0698 4.0458 13.0178 5.33602 13.0151 5.39069C13.0036 5.62758 12.8071 5.81247 12.572 5.81247V5.81247Z" fill="#FFAC33"/>
<path d="M14.1538 5.56532C14.1053 5.56532 14.0555 5.55687 14.0071 5.53998C13.7755 5.45865 13.6533 5.20532 13.7347 4.97376C13.7498 4.92621 14.1315 3.69554 12.7591 2.32354C11.3698 0.933761 10.0364 1.25065 9.98044 1.26487C9.74533 1.32576 9.50177 1.18309 9.43999 0.947094C9.37777 0.711094 9.51644 0.469761 9.75155 0.406205C9.8271 0.385761 11.6204 -0.0724614 13.3875 1.69554C15.1724 3.47954 14.5991 5.19598 14.5733 5.26843C14.5093 5.45065 14.3373 5.56532 14.1538 5.56532V5.56532Z" fill="#FFAC33"/>
<path d="M4.85067 14.4538C3.56178 14.4538 2.38711 14.1613 1.488 13.6818C1.48445 13.7467 1.47511 13.8107 1.47511 13.8764C1.47556 16.2582 8.07822 16.2582 8.07689 13.8769C8.07689 13.8369 8.07022 13.7982 8.06889 13.7587C7.19022 14.1924 6.07067 14.4538 4.85067 14.4538V14.4538Z" fill="#66757F"/>
</svg>
