<svg width="16" height="16" viewBox="0 0 48 48" fill="none" xmlns="http://www.w3.org/2000/svg">
<path d="M31.36 0C44.8 0 48 3.2 48 16.64V31.36C48 44.8 44.8 48 31.36 48H16.64C3.2 48 0 44.8 0 31.36V16.64C0 3.2 3.2 0 16.64 0H31.36Z" fill="black"/>
<path d="M24 12.2833C32.2329 12.2833 40.4667 18.9923 40.4667 24C40.4667 29.0076 32.2329 35.7167 24 35.7167C15.7671 35.7167 7.53333 29.0076 7.53333 24C7.53333 18.9923 15.7671 12.2833 24 12.2833ZM24 15.1333C17.2272 15.1333 10.3833 20.7098 10.3833 24C10.3833 27.2902 17.2272 32.8667 24 32.8667C30.7727 32.8667 37.6167 27.2902 37.6167 24C37.6167 20.7098 30.7727 15.1333 24 15.1333ZM24 18.6167C26.973 18.6167 29.3834 21.0268 29.3834 24C29.3834 26.973 26.973 29.3834 24 29.3834C21.0268 29.3834 18.6167 26.973 18.6167 24C18.6167 21.0268 21.0268 18.6167 24 18.6167ZM24 21.4667C22.6008 21.4667 21.4667 22.6008 21.4667 24C21.4667 25.3991 22.6008 26.5334 24 26.5334C25.3991 26.5334 26.5334 25.3991 26.5334 24C26.5334 22.6008 25.3991 21.4667 24 21.4667Z" fill="white"/>
</svg>
