<svg width="16px" height="16px" viewBox="0 0 16 16" fill="none" xmlns="http://www.w3.org/2000/svg">
    <path d="M9.12101 2.17601C9.04062 2.02439 8.93022 1.89072 8.79653 1.78312C8.66284 1.67552 8.50865 1.59626 8.34335 1.55014C8.17806 1.50402 8.00511 1.49202 7.83502 1.51486C7.66494 1.5377 7.50128 1.59491 7.35401 1.683C7.15585 1.80304 6.99274 1.97305 6.88101 2.17601L5.03701 5.505L5.50751 5.7865C6.81653 6.59212 7.91009 7.70386 8.69401 9.02598C9.47793 10.3481 9.9287 11.841 10.0075 13.376H8.71301C8.63339 12.0738 8.24126 10.81 7.5698 9.69145C6.89834 8.5729 5.96732 7.63256 4.85551 6.95L4.38501 6.6695L2.66701 9.78251L3.13751 10.0635C3.71436 10.4232 4.20346 10.9073 4.56898 11.4805C4.9345 12.0536 5.16719 12.7013 5.25001 13.376H2.29351C2.23578 13.3757 2.18051 13.3526 2.13983 13.3116C2.09915 13.2707 2.07638 13.2152 2.07651 13.1575C2.07596 13.1171 2.08596 13.0773 2.10551 13.042L2.92951 11.554C2.65343 11.3108 2.3345 11.1211 1.98901 10.9945L1.17351 12.479C1.00143 12.7885 0.954923 13.1522 1.04362 13.495C1.13232 13.8378 1.34943 14.1334 1.65001 14.3205C1.84435 14.4374 2.06673 14.4994 2.29351 14.5H6.36251V13.939C6.36771 13.0595 6.16868 12.1908 5.78111 11.4012C5.39354 10.6117 4.828 9.92286 4.12901 9.389L4.77901 8.22001C5.67438 8.87844 6.40125 9.73937 6.90023 10.7325C7.39921 11.7256 7.65613 12.8226 7.65001 13.934V14.497H11.1V13.935C11.1094 12.2006 10.6958 10.49 9.89516 8.9514C9.0945 7.41281 7.93086 6.09257 6.50501 5.10501L7.81401 2.73851C7.82733 2.71355 7.84558 2.69157 7.86766 2.67387C7.88973 2.65618 7.91516 2.64316 7.94241 2.63558C7.96967 2.62801 7.99818 2.62605 8.02621 2.62982C8.05424 2.63358 8.08122 2.643 8.10551 2.6575C8.13819 2.67716 8.1651 2.70511 8.18351 2.73851L13.89 13.042C13.9185 13.093 13.9263 13.1529 13.9119 13.2095C13.8974 13.266 13.8619 13.3149 13.8125 13.346C13.7794 13.3666 13.741 13.377 13.702 13.376H12.367C12.3835 13.752 12.3855 14.126 12.367 14.502H13.7065C14.0568 14.4945 14.3898 14.3483 14.6323 14.0954C14.8749 13.8426 15.0071 13.5038 15 13.1535C15.0003 12.918 14.9408 12.6862 14.827 12.48L9.12101 2.17601Z"
          fill="#FB4226"/>
</svg>
